<svg version="1.0" xmlns="http://www.w3.org/2000/svg" width="266.667" height="266.667" viewBox="0 0 200 200"><path d="M76 2c0 1.8-.7 2-6 2s-6 .2-6 2c0 1.7-.7 2-4 2s-4 .3-4 2-.7 2-4 2-4 .3-4 2-.7 2-4 2-4 .3-4 2c0 1.3-.7 2-2 2s-2 .7-2 2-.7 2-2 2-2 .7-2 2-.7 2-2 2-2 .7-2 2-.7 2-2 2-2 .7-2 2-.7 2-2 2c-1.7 0-2 .7-2 4s-.3 4-2 4c-1.3 0-2 .7-2 2s-.7 2-2 2c-1.7 0-2 .7-2 4s-.3 4-2 4-2 .7-2 4-.3 4-2 4c-1.8 0-2 .7-2 8s-.2 8-2 8c-1.9 0-2 .7-2 20s.1 20 2 20c1.8 0 2 .7 2 8s.2 8 2 8c1.7 0 2 .7 2 4s.3 4 2 4 2 .7 2 4 .3 4 2 4c1.3 0 2 .7 2 2s.7 2 2 2c1.7 0 2 .7 2 4s.3 4 2 4c1.3 0 2 .7 2 2s.7 2 2 2 2 .7 2 2 .7 2 2 2 2 .7 2 2 .7 2 2 2 2 .7 2 2 .7 2 2 2 2 .7 2 2c0 1.7.7 2 4 2s4 .3 4 2 .7 2 4 2 4 .3 4 2 .7 2 4 2 4 .3 4 2 .7 2 4 2 4-.3 4-2c0-1.3-.7-2-2-2-1.8 0-2-.7-2-6v-6h-6c-5.3 0-6-.2-6-2 0-1.3-.7-2-2-2s-2-.7-2-2-.7-2-2-2c-1.7 0-2-.7-2-4s-.3-4-2-4c-1.9 0-2-.7-2-18v-18h-8v-4c0-3.3-.3-4-2-4-1.8 0-2-.7-2-6s.2-6 2-6c1.7 0 2-.7 2-4v-4h8V86c0-13.3.1-14 2-14 1.7 0 2-.7 2-4s.3-4 2-4 2-.7 2-4 .3-4 2-4c1.3 0 2-.7 2-2s.7-2 2-2 2-.7 2-2 .7-2 2-2 2-.7 2-2c0-1.7.7-2 4-2s4-.3 4-2c0-1.3.7-2 2-2s2-.7 2-2c0-1.8.7-2 6-2s6-.2 6-2c0-1.9.7-2 14-2s14 .1 14 2c0 1.8.7 2 6 2s6 .2 6 2c0 1.3.7 2 2 2s2 .7 2 2c0 1.7.7 2 4 2s4 .3 4 2c0 1.3.7 2 2 2s2 .7 2 2 .7 2 2 2 2 .7 2 2 .7 2 2 2c1.7 0 2 .7 2 4s.3 4 2 4 2 .7 2 4 .3 4 2 4c1.9 0 2 .7 2 14v14h8v4c0 3.3.3 4 2 4 1.8 0 2 .7 2 6s-.2 6-2 6c-1.7 0-2 .7-2 4v4h-8v18c0 17.3-.1 18-2 18-1.7 0-2 .7-2 4s-.3 4-2 4c-1.3 0-2 .7-2 2s-.7 2-2 2-2 .7-2 2c0 1.8-.7 2-6 2h-6v6c0 5.3-.2 6-2 6-1.3 0-2 .7-2 2s.7 2 2 2 2-.7 2-2c0-1.8.7-2 6-2s6-.2 6-2c0-1.3.7-2 2-2s2-.7 2-2c0-1.7.7-2 4-2s4-.3 4-2c0-1.3.7-2 2-2s2-.7 2-2 .7-2 2-2 2-.7 2-2 .7-2 2-2 2-.7 2-2 .7-2 2-2 2-.7 2-2 .7-2 2-2 2-.7 2-2 .7-2 2-2c1.7 0 2-.7 2-4s.3-4 2-4c1.3 0 2-.7 2-2s.7-2 2-2c1.8 0 2-.7 2-6s.2-6 2-6 2-.7 2-6 .2-6 2-6c1.9 0 2-.7 2-24s-.1-24-2-24c-1.8 0-2-.7-2-6s-.2-6-2-6-2-.7-2-6-.2-6-2-6c-1.3 0-2-.7-2-2s-.7-2-2-2c-1.7 0-2-.7-2-4s-.3-4-2-4c-1.3 0-2-.7-2-2s-.7-2-2-2-2-.7-2-2-.7-2-2-2-2-.7-2-2-.7-2-2-2-2-.7-2-2-.7-2-2-2-2-.7-2-2-.7-2-2-2-2-.7-2-2c0-1.7-.7-2-4-2s-4-.3-4-2c0-1.3-.7-2-2-2s-2-.7-2-2c0-1.8-.7-2-6-2s-6-.2-6-2-.7-2-6-2-6-.2-6-2c0-1.9-.7-2-24-2S76 .1 76 2z"/><path d="M84 46c0 1.7-.7 2-4 2s-4 .3-4 2c0 1.3-.7 2-2 2s-2 .7-2 2-.7 2-2 2c-1.7 0-2 .7-2 4s.3 4 2 4c1.3 0 2 .7 2 2 0 1.8.7 2 6 2s6 .2 6 2c0 1.9.7 2 18 2s18-.1 18-2c0-1.8.7-2 6-2s6-.2 6-2c0-1.3.7-2 2-2 1.7 0 2-.7 2-4s-.3-4-2-4c-1.3 0-2-.7-2-2s-.7-2-2-2-2-.7-2-2c0-1.7-.7-2-4-2s-4-.3-4-2c0-1.9-.7-2-18-2s-18 .1-18 2zM56 78c0 5.3-.2 6-2 6s-2 .7-2 6v6h100v-6c0-5.3-.2-6-2-6s-2-.7-2-6v-6h-6c-5.3 0-6 .2-6 2 0 1.7-.7 2-4 2s-4 .3-4 2-.7 2-4 2-4 .3-4 2c0 1.9-.7 2-18 2s-18-.1-18-2c0-1.7-.7-2-4-2s-4-.3-4-2-.7-2-4-2-4-.3-4-2c0-1.8-.7-2-6-2h-6v6zM44 114v6h68v12c0 11.3.1 12 2 12 1.3 0 2 .7 2 2 0 1.7.7 2 4 2h4v-4c0-3.3.3-4 2-4 1.3 0 2-.7 2-2s-.7-2-2-2c-1.8 0-2-.7-2-6s.2-6 2-6c1.3 0 2-.7 2-2 0-1.9.7-2 16-2h16v-12H44v6z"/><path d="M56 148c0 15.3.1 16 2 16 1.3 0 2 .7 2 2s.7 2 2 2 2 .7 2 2c0 2 .7 2 38 2s38 0 38-2c0-1.3.7-2 2-2s2-.7 2-2 .7-2 2-2c1.9 0 2-.7 2-16v-16h-12v10c0 9.3-.1 10-2 10-1.3 0-2 .7-2 2 0 1.7-.7 2-4 2s-4 .3-4 2c0 1.8-.7 2-6 2s-6-.2-6-2c0-1.3-.7-2-2-2s-2-.7-2-2-.7-2-2-2c-1.9 0-2-.7-2-10v-10H56v16zM80 192v8h44v-16H80v8z"/></svg>